<svg width="22" height="36" viewBox="0 0 22 36" fill="none" xmlns="http://www.w3.org/2000/svg">
<path d="M3.75988 17.7698L21.5432 33.2698C21.6897 33.3947 21.8054 33.543 21.8838 33.7061C21.9622 33.8692 22.0017 34.0439 21.9999 34.22C21.9982 34.3961 21.9553 34.5702 21.8738 34.7322C21.7922 34.8942 21.6735 35.0408 21.5247 35.1636C21.3759 35.2865 21.1998 35.3831 21.0066 35.4478C20.8135 35.5125 20.6071 35.5441 20.3995 35.5408C20.1919 35.5374 19.9871 35.4992 19.797 35.4283C19.6069 35.3573 19.4353 35.2551 19.2921 35.1276L0.444875 18.6987C0.159608 18.4501 -1.71432e-06 18.1168 -1.74846e-06 17.7698C-1.78259e-06 17.4229 0.159608 17.0896 0.444875 16.8409L19.2921 0.412074C19.4353 0.284525 19.6069 0.182337 19.797 0.111418C19.9871 0.0404953 20.1919 0.00225292 20.3995 -0.00110022C20.6071 -0.00445335 20.8135 0.0271514 21.0066 0.091883C21.1998 0.156615 21.3759 0.253191 21.5247 0.376021C21.6735 0.49885 21.7922 0.645498 21.8738 0.807474C21.9553 0.969446 21.9982 1.14353 21.9999 1.31966C22.0017 1.49579 21.9622 1.67046 21.8838 1.83356C21.8054 1.99666 21.6897 2.14496 21.5432 2.26987L3.75988 17.7698Z" fill="black"/>
</svg>
