<svg width="71" height="70" viewBox="0 0 71 70" fill="none" xmlns="http://www.w3.org/2000/svg">
<path d="M26.6092 34.9194C26.6063 33.51 26.9467 32.1211 27.6011 30.8728C28.2555 29.6246 29.204 28.5545 30.3648 27.755C31.5255 26.9556 32.8635 26.451 34.263 26.2848C35.6626 26.1185 37.0816 26.2957 38.3973 26.8009C38.5749 26.869 38.7642 26.9014 38.9544 26.8963C39.1445 26.8913 39.3318 26.8488 39.5056 26.7713C39.6793 26.6939 39.8361 26.583 39.967 26.4449C40.0978 26.3069 40.2002 26.1444 40.2683 25.9668C40.3364 25.7891 40.3688 25.5998 40.3638 25.4097C40.3587 25.2195 40.3162 25.0322 40.2388 24.8585C40.1613 24.6847 40.0504 24.528 39.9123 24.3971C39.7743 24.2662 39.6118 24.1638 39.4342 24.0957C37.6794 23.424 35.7875 23.1891 33.9217 23.4115C32.0559 23.6338 30.2722 24.3066 28.7243 25.3718C27.1765 26.4371 25.911 27.8628 25.0369 29.5261C24.1628 31.1894 23.7064 33.0404 23.707 34.9194C23.707 41.3203 28.8915 46.5047 35.2924 46.5047C37.1714 46.5054 39.0223 46.049 40.6857 45.1749C42.349 44.3008 43.7747 43.0353 44.84 41.4874C45.9052 39.9396 46.578 38.1559 46.8003 36.2901C47.0226 34.4243 46.7878 32.5324 46.116 30.7776C45.9785 30.4189 45.7042 30.1294 45.3533 29.973C45.0024 29.8166 44.6037 29.8059 44.245 29.9434C43.8863 30.0809 43.5969 30.3553 43.4404 30.7062C43.284 31.0571 43.2734 31.4558 43.4109 31.8145C43.9161 33.1302 44.0933 34.5492 43.927 35.9487C43.7608 37.3483 43.2561 38.6863 42.4567 39.847C41.6573 41.0078 40.5872 41.9563 39.3389 42.6107C38.0907 43.265 36.7018 43.6055 35.2924 43.6026C30.4845 43.6026 26.6034 39.7215 26.6034 34.9136L26.6092 34.9194Z" fill="white"/>
<path fill-rule="evenodd" clip-rule="evenodd" d="M35.2989 14.6465C17.6022 14.6465 7.05953 28.3462 4.01837 32.7486C3.58505 33.3902 3.35352 34.1467 3.35352 34.9209C3.35352 35.6951 3.58505 36.4516 4.01837 37.0932C6.94368 41.4956 17.4864 55.1953 35.2989 55.1953C52.9956 55.1953 63.5382 41.4956 66.5794 37.0932C67.0127 36.4516 67.2443 35.6951 67.2443 34.9209C67.2443 34.1467 67.0127 33.3902 66.5794 32.7486C63.6541 28.3462 53.1114 14.6465 35.2989 14.6465ZM6.50923 34.3706C9.35633 30.113 19.1373 17.5428 35.2989 17.5428C51.4605 17.5428 61.2212 30.084 64.0886 34.3706C64.2044 34.5361 64.2666 34.7333 64.2666 34.9354C64.2666 35.1374 64.2044 35.3346 64.0886 35.5002C61.2414 39.7578 51.4605 52.3279 35.2989 52.3279C19.1373 52.3279 9.37661 39.7868 6.50923 35.5002C6.39333 35.3346 6.33117 35.1374 6.33117 34.9354C6.33117 34.7333 6.39333 34.5361 6.50923 34.3706Z" fill="white"/>
</svg>
