<svg width="59" height="59" viewBox="0 0 59 59" fill="none" xmlns="http://www.w3.org/2000/svg">
<path d="M29.5742 0.986328C45.5905 0.986328 58.5742 13.9701 58.5742 29.9863C58.5742 46.0026 45.5905 58.9863 29.5742 58.9863C13.558 58.9863 0.574219 46.0026 0.574219 29.9863C0.574219 13.9701 13.558 0.986328 29.5742 0.986328ZM30.0742 9.99219C26.1223 9.99219 23.2535 10.0374 21.5264 10.126C19.9864 10.1839 18.4609 10.4394 16.9893 10.8857C15.4918 11.406 14.1318 12.2452 13.0078 13.3418C11.8838 14.4384 11.0235 15.7656 10.4902 17.2266C10.0329 18.6621 9.7713 20.1502 9.71191 21.6523C9.62117 23.3488 9.57422 26.1367 9.57422 29.9922C9.57422 33.8474 9.62118 36.6461 9.71191 38.3311C9.76753 39.8303 10.0278 41.3299 10.4902 42.7578C11.023 44.2171 11.8809 45.545 13.0078 46.6416C14.1202 47.7326 15.4846 48.5442 16.9893 49.0068C18.4441 49.5151 19.975 49.8011 21.5264 49.8525C23.2652 49.9411 26.1223 49.9863 30.0742 49.9863C34.0261 49.9863 36.895 49.9411 38.6221 49.8525C40.162 49.7946 41.6875 49.5391 43.1592 49.0928C44.6556 48.5707 46.0149 47.7311 47.1387 46.6348C48.2624 45.5384 49.1231 44.2119 49.6582 42.752C50.1187 41.3165 50.378 39.8406 50.4365 38.3252C50.5273 36.6287 50.5742 33.8415 50.5742 29.9863C50.5742 26.131 50.5449 23.3608 50.4834 21.6758C50.4016 20.1628 50.1245 18.6658 49.6582 17.2207C49.1253 15.7603 48.2658 14.4334 47.1426 13.3369C46.0191 12.2403 44.659 11.4005 43.1621 10.8799C41.6905 10.4336 40.165 10.178 38.625 10.1201C36.8823 10.0306 34.0329 9.98633 30.0771 9.98633L30.0742 9.99219ZM31.5352 13.6787C33.9744 13.6787 35.8673 13.7086 37.2139 13.7676C38.8854 13.7847 40.5511 14.0245 42.1611 14.4814C43.063 14.8038 43.8821 15.3142 44.5615 15.9766C45.2409 16.6389 45.7646 17.4378 46.0957 18.3174C46.564 19.8852 46.8096 21.5158 46.8271 23.1436C46.8857 24.3944 46.918 26.2277 46.918 28.6836V31.54C46.918 33.9197 46.8876 35.7664 46.8271 37.0801C46.7986 38.7131 46.5529 40.3361 46.0957 41.9072C45.7454 42.7763 45.2149 43.5653 44.5381 44.2256C43.8612 44.886 43.052 45.4034 42.1611 45.7451C40.557 46.2021 38.8824 46.4418 37.2139 46.459C35.9347 46.5161 34.0525 46.5479 31.5352 46.5479H28.6104C26.1711 46.5479 24.2782 46.518 22.9316 46.459C21.2578 46.4311 19.5948 46.1912 17.9844 45.7451C17.0935 45.4034 16.2843 44.886 15.6074 44.2256C14.9306 43.5653 14.4001 42.7763 14.0498 41.9072C13.5926 40.3361 13.3469 38.7131 13.3184 37.0801C13.2569 35.7721 13.2275 33.9388 13.2275 31.54V28.6836C13.2275 26.3039 13.2579 24.4572 13.3184 23.1436C13.3359 21.513 13.5815 19.888 14.0498 18.3174C14.3806 17.4381 14.9041 16.6389 15.583 15.9766C16.2618 15.3144 17.0802 14.8041 17.9814 14.4814C19.5918 14.0354 21.2549 13.7955 22.9287 13.7676C24.2694 13.7076 26.1486 13.6787 28.6074 13.6787H31.5352ZM30.0742 20.0449C28.2731 20.0337 26.5023 20.4993 24.9512 21.3926C23.3997 22.2693 22.1086 23.5295 21.2041 25.0488C20.3051 26.5681 19.8321 28.2916 19.832 30.0459C19.832 31.8004 20.305 33.5245 21.2041 35.0439C22.1068 36.5602 23.4011 37.8195 24.957 38.6973C26.513 39.575 28.2769 40.041 30.0742 40.0479C32.79 40.0381 35.3921 38.9809 37.3125 37.1074C39.2327 35.2339 40.3152 32.6953 40.3252 30.0459C40.3251 28.3041 39.8486 26.5622 38.9443 25.0488C38.0455 23.5308 36.7532 22.2695 35.1973 21.3926C33.6461 20.4993 31.8754 20.0337 30.0742 20.0449ZM30.0742 23.6152C31.8211 23.6152 33.4962 24.292 34.7314 25.4971C35.9666 26.7021 36.6611 28.3368 36.6611 30.041C36.661 31.745 35.9665 33.379 34.7314 34.584C33.4962 35.7891 31.8211 36.4668 30.0742 36.4668C28.3274 36.4668 26.6522 35.7891 25.417 34.584C24.182 33.379 23.4874 31.745 23.4873 30.041C23.4873 28.3368 24.1818 26.7021 25.417 25.4971C26.6522 24.292 28.3274 23.6152 30.0742 23.6152ZM41.0518 16.8467C40.5449 16.8434 40.0482 16.9872 39.626 17.2607C39.2038 17.5342 38.8753 17.9249 38.6816 18.3818C38.4881 18.8388 38.4381 19.3417 38.5391 19.8262C38.6401 20.3106 38.887 20.7547 39.248 21.1016C39.5966 21.4563 40.0477 21.6993 40.541 21.7988C41.0345 21.8983 41.5475 21.8493 42.0117 21.6582C42.3143 21.5295 42.5855 21.3398 42.8076 21.1016C43.2759 20.6219 43.5576 20.0023 43.6133 19.3428C43.602 18.6836 43.3283 18.0541 42.8506 17.5879C42.3727 17.1216 41.7275 16.8577 41.0518 16.8467Z" fill="white"/>
</svg>
