<svg width="28" height="26" viewBox="0 0 28 26" fill="none" xmlns="http://www.w3.org/2000/svg">
<path d="M13.9996 11.8497C12.4521 11.8497 11.1265 11.3001 10.0231 10.2011C8.91963 9.10199 8.36852 7.78236 8.36977 6.24216C8.37103 4.70197 8.92213 3.38109 10.0231 2.27953C11.124 1.17796 12.4496 0.630297 13.9996 0.636527C15.5497 0.642758 16.8753 1.19105 17.9762 2.28139C19.0772 3.37174 19.6283 4.69262 19.6295 6.24403C19.6308 7.79544 19.0797 9.11507 17.9762 10.2029C16.8728 11.2908 15.5472 11.8397 13.9996 11.8497ZM0.863281 23.4236V22.2871C0.863281 21.5158 1.08848 20.7943 1.53887 20.1226C1.99051 19.4497 2.59728 18.9276 3.35919 18.5562C5.13072 17.7101 6.90351 17.0759 8.67754 16.6534C10.4503 16.2297 12.2244 16.0179 13.9996 16.0179C15.7749 16.0179 17.5496 16.2297 19.3236 16.6534C21.0977 17.0771 22.8692 17.7114 24.6382 18.5562C25.4014 18.9276 26.0082 19.4497 26.4585 20.1226C26.9102 20.7943 27.136 21.5158 27.136 22.2871V23.4236C27.136 23.9718 26.949 24.4329 26.5749 24.8067C26.2008 25.1781 25.7379 25.3637 25.1862 25.3637H2.81497C2.26324 25.3637 1.80034 25.1775 1.42627 24.8049C1.05219 24.4323 0.864532 23.9718 0.863281 23.4236ZM2.7399 23.4964H25.2594V22.2871C25.2594 21.8734 25.1249 21.484 24.8559 21.1189C24.5882 20.755 24.2172 20.4472 23.7431 20.1955C22.1992 19.4503 20.6072 18.8796 18.9671 18.4833C17.3269 18.0871 15.6711 17.8889 13.9996 17.8889C12.3282 17.8889 10.673 18.0871 9.0341 18.4833C7.39518 18.8796 5.80255 19.4503 4.25622 20.1955C3.78081 20.4472 3.40986 20.755 3.14338 21.1189C2.8744 21.484 2.7399 21.874 2.7399 22.289V23.4964ZM13.9996 9.9805C15.0318 9.9805 15.9157 9.61414 16.6513 8.88143C17.3869 8.14871 17.7541 7.26833 17.7529 6.24029C17.7516 5.21225 17.3844 4.33249 16.6513 3.60103C15.9182 2.86956 15.0343 2.5032 13.9996 2.50196C12.965 2.50071 12.0817 2.86707 11.3499 3.60103C10.618 4.33499 10.2502 5.21474 10.2464 6.24029C10.2426 7.26584 10.6105 8.14622 11.3499 8.88143C12.0892 9.61663 12.9725 9.98237 13.9996 9.97863" fill="black"/>
</svg>
