<svg width="60" height="58" viewBox="0 0 60 58" fill="none" xmlns="http://www.w3.org/2000/svg">
<path d="M29.6484 0C13.3644 0 0.148438 12.9341 0.148438 28.8707C0.148438 44.8073 13.3644 57.7414 29.6484 57.7414C45.9324 57.7414 59.1484 44.8073 59.1484 28.8707C59.1484 12.9341 45.9324 0 29.6484 0ZM43.3364 19.6321C42.8939 24.1936 40.9764 35.28 40.0029 40.3901C39.5899 42.5554 38.7639 43.2772 37.9969 43.3638C36.2859 43.5081 34.9879 42.2667 33.3359 41.1985C30.7399 39.524 29.2649 38.4846 26.7574 36.8679C23.8369 34.9913 25.7249 33.9519 27.4064 32.2774C27.8489 31.8444 35.4009 25.1175 35.5484 24.5112C35.5689 24.4194 35.5662 24.324 35.5405 24.2335C35.5148 24.1429 35.4669 24.0599 35.4009 23.9915C35.2239 23.8472 34.9879 23.9049 34.7814 23.9338C34.5159 23.9915 30.3859 26.6765 22.3324 31.9887C21.1524 32.7682 20.0904 33.1724 19.1464 33.1435C18.0844 33.1147 16.0784 32.5661 14.5739 32.0753C12.7154 31.4979 11.2699 31.1803 11.3879 30.1699C11.4469 29.6502 12.1844 29.1305 13.5709 28.582C22.1849 24.9154 27.9079 22.4903 30.7694 21.3354C38.9704 17.9864 40.6519 17.409 41.7729 17.409C42.0089 17.409 42.5694 17.4668 42.9234 17.7555C43.2184 17.9864 43.3069 18.304 43.3364 18.535C43.3069 18.7082 43.3659 19.2279 43.3364 19.6321Z" fill="white"/>
</svg>
