<svg width="58" height="56" viewBox="0 0 58 56" fill="none" xmlns="http://www.w3.org/2000/svg">
<path d="M28.6484 0C23.0117 0 17.5015 1.63584 12.8147 4.70065C8.1279 7.76546 4.47498 12.1216 2.31788 17.2182C0.160786 22.3148 -0.403609 27.9229 0.69607 33.3335C1.79575 38.744 4.51011 43.7139 8.49591 47.6146C12.4817 51.5154 17.5599 54.1719 23.0884 55.2481C28.6168 56.3243 34.3472 55.7719 39.5549 53.6609C44.7626 51.5498 49.2137 47.9748 52.3453 43.388C55.4769 38.8012 57.1484 33.4085 57.1484 27.892C57.1409 20.4969 54.1358 13.4067 48.7926 8.17753C43.4495 2.94837 36.2048 0.00738408 28.6484 0ZM45.5746 21.5131V23.3149C45.5746 23.4528 45.5465 23.5893 45.4917 23.7164C45.4369 23.8435 45.3567 23.9585 45.2557 24.0547C45.1548 24.1509 45.0351 24.2263 44.9039 24.2765C44.7726 24.3267 44.6325 24.3507 44.4916 24.3469C41.4824 24.1389 38.6036 23.0635 36.218 21.2565V34.4438C36.2174 35.9033 35.9197 37.3481 35.3422 38.6938C34.7648 40.0395 33.9193 41.2591 32.855 42.2815C31.782 43.3306 30.5059 44.1596 29.1014 44.72C27.6969 45.2804 26.1922 45.5608 24.6755 45.5449C21.6257 45.5405 18.6984 44.3694 16.5188 42.2815C15.132 40.9131 14.1331 39.215 13.6204 37.3541C13.1077 35.4932 13.0988 33.5338 13.5947 31.6686C14.0479 29.8779 14.9627 28.2323 16.2538 26.8907C17.2166 25.739 18.4303 24.8124 19.806 24.1788C21.1818 23.5452 22.6848 23.2205 24.2053 23.2285H26.5423V27.9785C26.5433 28.1164 26.5143 28.253 26.4571 28.3791C26.4 28.5052 26.316 28.618 26.2109 28.7098C26.1057 28.8017 25.9817 28.8705 25.8472 28.9118C25.7127 28.953 25.5707 28.9658 25.4308 28.9491C24.0739 28.5502 22.6117 28.6825 21.3526 29.3181C20.0934 29.9537 19.1355 31.043 18.681 32.3563C18.2264 33.6695 18.3106 35.1042 18.9158 36.3579C19.5211 37.6116 20.6 38.5864 21.9253 39.0767C22.6948 39.509 23.5555 39.7628 24.439 39.8214C25.123 39.8493 25.807 39.7656 26.4568 39.5648C27.5416 39.2066 28.4851 38.5261 29.1559 37.6182C29.8267 36.7102 30.1913 35.62 30.1988 34.4996V10.4707C30.1988 10.2048 30.3065 9.94986 30.4983 9.76163C30.6901 9.5734 30.9504 9.46729 31.222 9.46655H35.2547C35.5168 9.46686 35.7687 9.56528 35.959 9.74161C36.1492 9.91795 36.2633 10.1588 36.2779 10.4149C36.4249 11.6456 36.8243 12.8345 37.4521 13.9105C38.0799 14.9865 38.9233 15.9273 39.9316 16.6766C41.2942 17.6776 42.9125 18.2915 44.6084 18.4506C44.8625 18.4718 45.1 18.5824 45.2771 18.7619C45.4542 18.9414 45.5589 19.1776 45.5717 19.4268L45.5746 21.5131Z" fill="white"/>
</svg>
