<svg width="27" height="37" viewBox="0 0 27 37" fill="none" xmlns="http://www.w3.org/2000/svg">
<path d="M0.186035 36.6279V8.13953H6.8372V7.12209C6.8372 5.14419 7.48394 3.46269 8.77744 2.07762C10.0709 0.692538 11.6412 0 13.4884 0C15.3355 0 16.9058 0.692538 18.1993 2.07762C19.4928 3.46269 20.1395 5.14419 20.1395 7.12209V8.13953H26.7907V36.6279H0.186035ZM2.08637 34.593H24.8904V10.1744H20.1395V16.2791H18.2392V10.1744H8.73753V16.2791H6.8372V10.1744H2.08637V34.593ZM8.73753 8.13953H18.2392V7.12209C18.2392 5.68953 17.7818 4.48353 16.8671 3.50407C15.9525 2.52461 14.8262 2.03488 13.4884 2.03488C12.1505 2.03488 11.0243 2.52461 10.1096 3.50407C9.19488 4.48353 8.73753 5.68953 8.73753 7.12209V8.13953Z" fill="black"/>
</svg>
