<svg width="48" height="38" viewBox="0 0 48 38" fill="none" xmlns="http://www.w3.org/2000/svg">
<path d="M5.25146 37.2473C3.94964 37.2473 2.8356 36.7949 1.90934 35.89C0.983077 34.9851 0.519156 33.896 0.517578 32.6226V4.87466C0.517578 3.60288 0.981499 2.51454 1.90934 1.60965C2.83718 0.704758 3.95122 0.251542 5.25146 0.25H43.1225C44.4243 0.25 45.5392 0.703217 46.467 1.60965C47.3948 2.51608 47.858 3.60442 47.8564 4.87466V32.6226C47.8564 33.8944 47.3933 34.9835 46.467 35.89C45.5407 36.7964 44.4259 37.2488 43.1225 37.2473H5.25146ZM24.187 21.061L43.1225 9.49932V4.87466L24.187 16.4363L5.25146 4.87466V9.49932L24.187 21.061Z" fill="black"/>
</svg>
