<svg width="45" height="42" viewBox="0 0 45 42" fill="none" xmlns="http://www.w3.org/2000/svg">
<path d="M40.5181 28.1439L34.2775 27.4776C33.5438 27.397 32.8 27.473 32.1021 27.6998C31.4042 27.9266 30.7704 28.2984 30.2482 28.7871L25.7275 33.0145C18.7533 29.6968 13.0843 24.3958 9.53639 17.8742L14.0817 13.6239C15.1382 12.636 15.6541 11.2575 15.4821 9.8561L14.7696 4.0665C14.6308 2.94555 14.0558 1.91154 13.1541 1.16158C12.2524 0.411626 11.0871 -0.00183813 9.88036 6.1433e-06H5.62989C2.85358 6.1433e-06 0.544072 2.15962 0.716057 4.75574C2.01822 24.376 18.799 40.0447 39.7565 41.2623C42.5328 41.4232 44.8423 39.2635 44.8423 36.6674V32.6928C44.8669 30.3724 42.9996 28.4195 40.5181 28.1439Z" fill="black"/>
</svg>
