<svg width="29" height="27" viewBox="0 0 29 27" fill="none" xmlns="http://www.w3.org/2000/svg">
<path d="M14.5 12.2438C12.7918 12.2438 11.3286 11.6438 10.1106 10.4437C8.89264 9.24359 8.28433 7.80267 8.28571 6.12092C8.2871 4.43916 8.8954 2.99688 10.1106 1.79407C11.3259 0.591257 12.789 -0.00674583 14.5 5.73951e-05C16.211 0.00686062 17.6741 0.605543 18.8894 1.79611C20.1046 2.98667 20.7129 4.42895 20.7143 6.12296C20.7157 7.81696 20.1074 9.25788 18.8894 10.4457C17.6714 11.6336 16.2082 12.2329 14.5 12.2438ZM0 24.8815V23.6406C0 22.7983 0.248571 22.0105 0.745714 21.2771C1.24424 20.5424 1.914 19.9723 2.755 19.5668C4.71043 18.6429 6.66724 17.9504 8.62543 17.4891C10.5822 17.0265 12.5404 16.7952 14.5 16.7952C16.4596 16.7952 18.4185 17.0265 20.3766 17.4891C22.3348 17.9517 24.2903 18.6443 26.2429 19.5668C27.0853 19.9723 27.7551 20.5424 28.2522 21.2771C28.7507 22.0105 29 22.7983 29 23.6406V24.8815C29 25.4802 28.7935 25.9836 28.3806 26.3918C27.9677 26.7973 27.4568 27 26.8478 27H2.15429C1.54529 27 1.03433 26.7966 0.621428 26.3898C0.208524 25.9829 0.00138095 25.4802 0 24.8815ZM2.07143 24.9611H26.9286V23.6406C26.9286 23.1888 26.7801 22.7636 26.4832 22.365C26.1877 21.9677 25.7782 21.6316 25.2549 21.3567C23.5508 20.5431 21.7935 19.9199 19.9831 19.4872C18.1726 19.0545 16.345 18.8382 14.5 18.8382C12.655 18.8382 10.828 19.0545 9.019 19.4872C7.20995 19.9199 5.452 20.5431 3.74514 21.3567C3.22038 21.6316 2.81093 21.9677 2.51679 22.365C2.21988 22.7636 2.07143 23.1895 2.07143 23.6426V24.9611ZM14.5 10.2028C15.6393 10.2028 16.6149 9.80282 17.4269 9.00276C18.2389 8.2027 18.6442 7.24141 18.6429 6.11887C18.6415 4.99634 18.2362 4.03573 17.4269 3.23703C16.6177 2.43833 15.642 2.0383 14.5 2.03694C13.358 2.03558 12.383 2.43561 11.5751 3.23703C10.7673 4.03845 10.3613 4.99906 10.3571 6.11887C10.353 7.23868 10.759 8.19998 11.5751 9.00276C12.3913 9.80554 13.3662 10.2049 14.5 10.2008" fill="black"/>
</svg>
