<svg width="60" height="58" viewBox="0 0 60 58" fill="none" xmlns="http://www.w3.org/2000/svg">
<path d="M29.6484 0C13.3558 0 0.148438 12.9256 0.148438 28.8707C0.148438 44.8157 13.3558 57.7414 29.6484 57.7414C45.941 57.7414 59.1484 44.8157 59.1484 28.8707C59.1484 12.9256 45.941 0 29.6484 0ZM40.9936 32.5727C40.9936 32.5727 43.6026 35.0929 44.2448 36.2628C44.2632 36.2888 44.2745 36.3089 44.2786 36.3229C44.5388 36.75 44.6033 37.0878 44.4722 37.3364C44.2571 37.7514 43.5196 37.9559 43.2676 37.974H38.6582C38.3386 37.974 37.6687 37.8928 36.8575 37.3454C36.2337 36.9184 35.6191 36.2177 35.0199 35.535C34.1257 34.5185 33.3513 33.6404 32.5708 33.6404C32.4716 33.6399 32.3731 33.6552 32.2789 33.6855C31.6889 33.8719 30.9329 34.6959 30.9329 36.8913C30.9329 37.577 30.3798 37.971 29.9895 37.971H27.8784C27.1594 37.971 23.4135 37.7244 20.0947 34.299C16.0323 30.1037 12.3756 21.6891 12.3448 21.6109C12.1144 21.0666 12.5907 20.7749 13.11 20.7749H17.7655C18.3862 20.7749 18.589 21.1448 18.7304 21.4726C18.8963 21.8545 19.5047 23.3732 20.5034 25.0814C22.1229 27.8662 23.1154 28.997 23.9113 28.997C24.0605 28.9953 24.2071 28.9581 24.3384 28.8887C25.3771 28.3233 25.1835 24.6995 25.1374 23.9476C25.1374 23.8063 25.1343 22.3267 24.6027 21.6169C24.2217 21.1027 23.5733 20.9072 23.1799 20.835C23.3391 20.62 23.5489 20.4457 23.7915 20.3268C24.5044 19.9779 25.7889 19.9268 27.0641 19.9268H27.774C29.1568 19.9448 29.5132 20.032 30.0141 20.1553C31.0282 20.3929 31.0497 21.0335 30.9606 23.2259C30.9329 23.8484 30.9053 24.5521 30.9053 25.3821L30.896 25.9596C30.8653 27.0753 30.8284 28.3414 31.6335 28.8617C31.7374 28.9287 31.8595 28.9633 31.9839 28.9609C32.2635 28.9609 33.1055 28.9609 35.3856 25.1325C36.0861 23.899 36.6971 22.6187 37.214 21.3011C37.2601 21.223 37.3953 20.9824 37.555 20.8891C37.6742 20.8337 37.8042 20.804 37.9361 20.8019H43.409C44.0051 20.8019 44.4138 20.8891 44.4906 21.1147C44.6258 21.4726 44.466 22.5642 41.9678 25.8753L40.8523 27.3159C38.5876 30.221 38.5876 30.3683 40.9936 32.5727Z" fill="white"/>
</svg>
