<svg width="60" height="59" viewBox="0 0 60 59" fill="none" xmlns="http://www.w3.org/2000/svg">
<path d="M34.8777 28.6185L27.9151 25.439C27.3075 25.1629 26.8084 25.4724 26.8084 26.1307V32.1196C26.8084 32.7779 27.3075 33.0874 27.9151 32.8113L34.8746 29.6318C35.4853 29.3527 35.4853 28.8976 34.8777 28.6185ZM29.9084 0C13.4722 0 0.148438 13.0396 0.148438 29.1251C0.148438 45.2107 13.4722 58.2503 29.9084 58.2503C46.3446 58.2503 59.6684 45.2107 59.6684 29.1251C59.6684 13.0396 46.3446 0 29.9084 0ZM29.9084 40.9572C14.675 40.9572 14.4084 39.6132 14.4084 29.1251C14.4084 18.6371 14.675 17.293 29.9084 17.293C45.1418 17.293 45.4084 18.6371 45.4084 29.1251C45.4084 39.6132 45.1418 40.9572 29.9084 40.9572Z" fill="white"/>
</svg>
