<?xml version="1.0" encoding="utf-8"?>
<!-- Generator: Adobe Illustrator 22.0.1, SVG Export Plug-In . SVG Version: 6.00 Build 0)  -->
<svg version="1.1" id="Слой_1" xmlns="http://www.w3.org/2000/svg" xmlns:xlink="http://www.w3.org/1999/xlink" x="0px" y="0px"
	 viewBox="0 0 1280 720" style="enable-background:new 0 0 1280 720;" xml:space="preserve">
<style type="text/css">
	.st0{fill:#FFFFFF;}
</style>
<g>
	<path class="st0" d="M712.4,229.6h-7l-32.6,52.2l-22.6-35.1c-1.8-2.9-3.7-5.7-5.8-8.3c-2.1-2.6-4.6-4.7-7.5-6.4
		c-2.9-1.7-6.2-2.5-10.1-2.5h-14v3.1c5.5,0.4,9.8,2.2,13,5.5c3.2,3.2,6.4,7.1,9.6,11.7l26.5,40.1v39.7c-7.7,6.5-14.9,8-19.8,9.2
		c-5.4,1.4-12.1,2.1-20.2,2.1c-9.7,0-18.7-2.2-27-6.7c-8.2-4.5-14.8-12-19.7-22.5c-4.9-10.5-7.3-24.7-7.3-42.7c0-8.4,1-16.6,3-24.6
		c2-8,5.2-15.2,9.6-21.7c4.3-6.4,9.9-11.6,16.8-15.4c6.8-3.8,15-5.7,24.6-5.7c13.6,0,24.4,3.3,32.3,9.9c7.9,6.6,13.2,16.4,16.1,29.5
		h4.5c0-5.1-0.2-10.6-0.7-16.4c-0.4-5.8-2.1-10.5-4.9-13.9c-4-4.9-10.6-9.2-19.8-12.7c-9.1-3.5-20.5-5.3-34.2-5.3
		c-14.2,0-26.6,3.4-37,10.2c-10.4,6.8-18.5,16-24.2,27.5c-5.7,11.5-8.5,24.4-8.5,38.7c0,11.2,1.9,21.8,5.6,31.6
		c3.7,9.8,9,18.4,15.7,25.7c6.7,7.3,14.8,13.1,24.2,17.3c9.4,4.2,19.7,6.3,30.9,6.3c10.9,0,20.8-1.1,29.7-3.4
		c8.8-2.2,17.3-5.8,25.4-10.8v-42.3c0-2.7,0.2-5.1,0.5-7.3L712.4,229.6z"/>
	<g>
		<g>
			<path class="st0" d="M129.5,427.1h27.2v2.2h-6.1v11c-0.7,1.6-1.8,3.4-3.3,5.4c-1.4,2-3.3,3.9-5.5,5.8c-2.2,1.9-4.9,3.4-8,4.6
				c-3.1,1.2-6.7,1.8-10.8,1.8c-7,0-12.9-1.7-17.7-5c-4.9-3.4-8.6-7.9-11.1-13.8c-2.5-5.8-3.8-12.5-3.8-19.9
				c0-5.6,0.8-10.7,2.4-15.5c1.6-4.7,3.9-8.8,7-12.3c3-3.5,6.6-6.2,10.8-8.1c4.2-1.9,8.8-2.9,13.9-2.9c3.3,0,6.5,0.6,9.5,1.7
				s5.7,2.8,8,4.8l5.3-5.5h1.8v20.6h-2c-0.1-3-0.8-5.7-2-8c-1.2-2.4-2.8-4.4-4.8-6.1s-4.3-3-6.8-3.8c-2.5-0.9-5.1-1.3-7.9-1.3
				c-4.4,0-8.1,1-11.1,3.1c-3,2-5.5,4.8-7.3,8.3c-1.8,3.5-3.2,7.4-4,11.7c-0.8,4.3-1.3,8.8-1.3,13.3s0.3,9,0.9,13.4
				c0.6,4.4,1.7,8.3,3.3,11.8c1.6,3.5,3.7,6.3,6.5,8.4c2.7,2.1,6.3,3.1,10.5,3.1c3.1,0,5.7-0.5,7.8-1.5c2.1-1,3.8-2.1,5-3.5
				s2.2-2.7,2.9-3.9c0.7-1.3,1.1-2.2,1.4-2.7v-15h-10.6V427.1z"/>
			<path class="st0" d="M208.7,380l25.9,74.9h7.8v2h-29.2v-2h10.3l-19.8-61.2l-21.3,61.2h10.7v2h-22.1v-2h9.2l26.3-74.9H208.7z
				 M189.7,433.3v-2h32.6v2H189.7z"/>
			<path class="st0" d="M275.7,418.5v-1.3h11.1c2.5,0,5-0.5,7.3-1.5c2.3-1,4.2-2.7,5.7-5c1.5-2.3,2.2-5.5,2.2-9.5s-0.7-7.3-2.2-9.9
				c-1.5-2.6-3.3-4.6-5.7-5.9c-2.3-1.3-4.7-1.9-7.3-1.9h-29.2v-2h29.2c7.6,0,13.7,1.5,18.3,4.4c4.6,2.9,6.9,7.7,6.9,14.2
				c0,6.5-2.2,11.2-6.5,14.1c-4.3,2.9-10.5,4.3-18.6,4.3H275.7z M257.6,456.9v-2h30.2c2.9,0,5.5-0.8,8-2.3c2.4-1.5,4.4-3.7,5.9-6.6
				s2.2-6.3,2.2-10.3s-0.7-7.2-2.2-9.7c-1.5-2.4-3.4-4.2-5.9-5.3c-2.4-1.1-5.1-1.7-8-1.7h-12.1v-1.3h13.1c4.7,0,9.1,0.6,13,1.8
				c4,1.2,7.1,3.1,9.5,5.7c2.4,2.6,3.6,6.1,3.6,10.5c0,7.5-2.3,12.9-7,16.2s-11,4.9-19.1,4.9H257.6z M266.7,456.1v-73.9h9.6v73.9
				H266.7z"/>
			<path class="st0" d="M350.6,419v-1.2h15.1c3.2,0,6-0.7,8.2-2c2.3-1.3,4-3.3,5.2-5.8c1.2-2.5,1.8-5.6,1.8-9.3s-0.6-6.8-1.8-9.4
				c-1.2-2.6-2.9-4.5-5.2-5.9s-5-2-8.2-2h-33.2v-2h33.2c5.1,0,9.5,0.7,13.2,2.1s6.7,3.5,8.8,6.4s3.1,6.5,3.1,10.8s-1,7.9-2.9,10.6
				c-1.9,2.7-4.8,4.6-8.5,5.9c-3.7,1.2-8.3,1.8-13.7,1.8H350.6z M332.5,456.9v-2h31.7v2H332.5z M343.6,455.8v-73h9.6v73H343.6z
				 M390.3,457.4c-2.9,0-5.2-0.5-6.8-1.6c-1.6-1.1-2.8-2.5-3.5-4.3c-0.7-1.8-1.2-3.8-1.4-6c-0.2-2.2-0.3-4.5-0.3-6.9
				c0-2.4-0.2-4.7-0.4-6.9c-0.2-2.2-0.8-4.2-1.6-6c-0.8-1.8-2.1-3.2-3.8-4.3c-1.8-1.1-4.2-1.6-7.3-1.6h-14.6v-1.1h16.6
				c4.8,0,8.6,0.7,11.4,2c2.8,1.3,5,3,6.4,5.2c1.4,2.2,2.4,4.6,2.9,7.1c0.5,2.6,0.8,5.2,0.8,7.7c0,2.6,0.1,5,0.3,7.1
				c0.1,2.2,0.5,3.9,1.1,5.2c0.6,1.3,1.8,2,3.4,2c1.1,0,2-0.1,2.8-0.3s1.6-0.5,2.2-0.8l0.7,1.9c-0.8,0.4-2,0.8-3.6,1.1
				C394.2,457.2,392.4,457.4,390.3,457.4z"/>
			<path class="st0" d="M414,456.9v-2h11.1v-71.5H414v-2h32.7v2h-12.1v71.5h12.1v2H414z"/>
			<path class="st0" d="M461.9,456.9v-2h9v-71.5h-9v-2h53.6v20.6h-2c0-3.6-0.5-6.8-1.5-9.6c-1-2.8-2.7-5-5-6.6
				c-2.3-1.6-5.5-2.4-9.4-2.4h-17.1v71.5h16c4.6,0,8.2-0.8,10.8-2.5s4.5-4.1,5.6-7.1c1.1-3.1,1.6-6.8,1.6-11h2v22.6H461.9z
				 M496.5,428.9c0-2.2-0.4-4.1-1.3-5.6c-0.9-1.5-2-2.6-3.5-3.3c-1.5-0.7-3.2-1.1-5.1-1.1h-8.4v-2h8.4c1.9,0,3.6-0.3,5.1-1
				c1.5-0.7,2.7-1.7,3.5-3.1c0.9-1.4,1.3-3.2,1.3-5.5h2v21.6H496.5z"/>
			<path class="st0" d="M533,456.9v-2h9v-71.5h-9v-2h27.6v2h-9v71.5h15.5c4,0,7.1-0.5,9.5-1.4c2.4-1,4.2-2.3,5.4-4.1
				c1.2-1.8,2-4,2.4-6.5s0.6-5.4,0.6-8.6h2v22.6H533z"/>
			<path class="st0" d="M657.3,456.9v-2h9v-34.3l-22.9-37.2h-7.7v-2h29.2v2h-10.4l20.3,33.2l19.9-33.2h-10.6v-2h20.5v2H697
				l-21.1,34.9v36.5H686v2H657.3z"/>
			<path class="st0" d="M785.9,381.5v2h-9.5v50.3c0,8.3-1.9,14.4-5.6,18.5c-3.7,4.1-9.6,6.1-17.5,6.1c-8.7,0-15-1.9-19.1-5.8
				c-4-3.9-6.1-10.1-6.1-18.8v-50.3h-9v-2h28.7v2h-10.1v49.3c0,3.3,0.2,6.4,0.7,9.2c0.5,2.8,1.4,5.3,2.6,7.4s3,3.7,5.3,4.9
				c2.3,1.2,5.3,1.8,8.9,1.8c4.2,0,7.7-0.8,10.5-2.3c2.8-1.5,5-3.9,6.5-7.2s2.2-7.5,2.2-12.8v-50.3h-9.2v-2H785.9z"/>
			<path class="st0" d="M829.4,458.3c-4.3,0-8.1-0.7-11.2-2s-5.8-3.2-7.9-5.5l-4.7,7.1h-1.7v-20.7h2c0.5,2.7,1.4,5.3,2.6,7.6
				s2.7,4.3,4.5,6c1.9,1.7,4.1,3,6.6,4c2.6,1,5.5,1.4,8.9,1.4c3.6,0,6.6-0.6,9.2-1.8c2.6-1.2,4.6-3,6-5.3c1.4-2.3,2.1-5.1,2.1-8.4
				c0-2.9-0.7-5.4-2.2-7.5c-1.4-2-3.4-3.8-5.8-5.3c-2.4-1.5-5-2.9-7.9-4.1c-2.8-1.3-5.7-2.6-8.5-3.9c-2.8-1.4-5.5-3-7.9-4.8
				c-2.4-1.8-4.3-4-5.8-6.6c-1.4-2.6-2.2-5.8-2.2-9.5s0.9-7,2.8-9.8c1.9-2.8,4.4-5,7.6-6.5s6.7-2.3,10.5-2.3c3.3,0,6.4,0.5,9.1,1.6
				c2.8,1.1,5.2,2.7,7.2,4.8l4.7-6.4h1.7v20.7h-1.9c-0.7-4.2-1.9-7.6-3.8-10.4c-1.8-2.7-4.1-4.8-6.9-6.1c-2.7-1.3-5.8-2-9.2-2
				c-4.8,0-8.4,1.1-10.9,3.4c-2.5,2.3-3.7,5.3-3.7,9c0,2.6,0.7,4.9,2.1,6.7c1.4,1.8,3.3,3.5,5.7,4.9c2.3,1.4,4.9,2.7,7.7,3.9
				c2.8,1.2,5.6,2.6,8.4,4c2.8,1.4,5.4,3.1,7.7,5.1c2.3,1.9,4.2,4.3,5.7,7.1c1.4,2.8,2.1,6.1,2.1,10.1c0,4.4-0.9,8.2-2.8,11.4
				c-1.9,3.2-4.5,5.7-8,7.5C838.2,457.5,834.1,458.3,829.4,458.3z"/>
			<path class="st0" d="M934.6,381.5v2h-9.5v50.3c0,8.3-1.9,14.4-5.6,18.5c-3.7,4.1-9.6,6.1-17.5,6.1c-8.7,0-15-1.9-19.1-5.8
				c-4-3.9-6.1-10.1-6.1-18.8v-50.3h-9v-2h28.7v2h-10.1v49.3c0,3.3,0.2,6.4,0.7,9.2c0.5,2.8,1.4,5.3,2.6,7.4s3,3.7,5.3,4.9
				c2.3,1.2,5.3,1.8,8.9,1.8c4.2,0,7.7-0.8,10.5-2.3c2.8-1.5,5-3.9,6.5-7.2s2.2-7.5,2.2-12.8v-50.3H914v-2H934.6z"/>
			<path class="st0" d="M968.2,418.5v-1.3h11.1c2.5,0,5-0.5,7.3-1.5c2.3-1,4.2-2.7,5.7-5c1.5-2.3,2.2-5.5,2.2-9.5s-0.7-7.3-2.2-9.9
				c-1.5-2.6-3.3-4.6-5.7-5.9c-2.3-1.3-4.7-1.9-7.3-1.9h-29.2v-2h29.2c7.6,0,13.7,1.5,18.3,4.4c4.6,2.9,6.9,7.7,6.9,14.2
				c0,6.5-2.2,11.2-6.5,14.1c-4.3,2.9-10.5,4.3-18.6,4.3H968.2z M950.1,456.9v-2h30.2c2.9,0,5.5-0.8,8-2.3c2.4-1.5,4.4-3.7,5.9-6.6
				s2.2-6.3,2.2-10.3s-0.7-7.2-2.2-9.7c-1.5-2.4-3.4-4.2-5.9-5.3c-2.4-1.1-5.1-1.7-8-1.7h-12.1v-1.3h13.1c4.7,0,9.1,0.6,13,1.8
				c4,1.2,7.1,3.1,9.5,5.7c2.4,2.6,3.6,6.1,3.6,10.5c0,7.5-2.3,12.9-7,16.2s-11,4.9-19.1,4.9H950.1z M959.2,456.1v-73.9h9.6v73.9
				H959.2z"/>
			<path class="st0" d="M1059.7,457.9c-5.1,0-9.6-1-13.6-3c-4-2-7.4-4.8-10.1-8.3s-4.9-7.7-6.3-12.3c-1.4-4.7-2.1-9.7-2.1-15.1
				c0-5.4,0.8-10.4,2.3-15.1c1.5-4.7,3.7-8.8,6.5-12.3c2.8-3.6,6.2-6.3,10.2-8.3c4-2,8.4-3,13.2-3c4.9,0,9.3,1,13.2,3
				c3.9,2,7.3,4.8,10.2,8.3c2.8,3.6,5,7.7,6.5,12.3c1.5,4.7,2.3,9.7,2.3,15.1c0,5.4-0.7,10.4-2.1,15.1c-1.4,4.7-3.5,8.8-6.3,12.3
				c-2.7,3.6-6.1,6.3-10.1,8.3C1069.3,456.9,1064.8,457.9,1059.7,457.9z M1059.7,456.1c4.4,0,7.9-1,10.6-3.1
				c2.7-2.1,4.8-4.9,6.2-8.4c1.5-3.5,2.4-7.5,3-11.9c0.5-4.4,0.8-8.9,0.8-13.4s-0.3-9-0.9-13.4c-0.6-4.4-1.7-8.4-3.2-11.9
				c-1.5-3.5-3.6-6.3-6.3-8.4c-2.7-2.1-6.1-3.1-10.2-3.1c-4.1,0-7.5,1-10.2,3.1c-2.7,2.1-4.8,4.9-6.3,8.4c-1.5,3.5-2.6,7.5-3.2,11.9
				c-0.6,4.4-0.9,8.9-0.9,13.4s0.3,9,0.8,13.4c0.5,4.4,1.5,8.4,3,11.9c1.4,3.5,3.5,6.4,6.3,8.4
				C1051.8,455,1055.3,456.1,1059.7,456.1z"/>
			<path class="st0" d="M1181,381.5v2h-8.7l-26.8,74.9h-2.3l-26-74.9h-7.7v-2h29.2v2h-10.4l20,61.7l21.9-61.7h-12.3v-2H1181z"/>
		</g>
	</g>
</g>
</svg>
