<svg id="Слой_1" data-name="Слой 1" xmlns="http://www.w3.org/2000/svg" viewBox="0 0 650 159.67"><title>побольш</title><path d="M367.14,25.55H363L344,56.11,330.75,35.59a41.69,41.69,0,0,0-3.42-4.84A16.31,16.31,0,0,0,323,27a11.5,11.5,0,0,0-5.88-1.46h-8.21v1.83a11.46,11.46,0,0,1,7.62,3.19,53.8,53.8,0,0,1,5.6,6.84l15.51,23.44v23.2c-4.48,3.77-8.74,4.66-11.56,5.4A46.89,46.89,0,0,1,314.2,90.7a32.41,32.41,0,0,1-15.78-3.94q-7.23-3.95-11.5-13.15t-4.28-25a58.3,58.3,0,0,1,1.78-14.39A40,40,0,0,1,290,21.54a28.51,28.51,0,0,1,9.8-9,29,29,0,0,1,14.4-3.35q12,0,18.87,5.78t9.4,17.23h2.63q0-4.47-.39-9.6a14.11,14.11,0,0,0-2.9-8.15Q338.27,10.09,330.24,7t-20-3.09q-12.5,0-21.63,6A40,40,0,0,0,274.49,26a50.42,50.42,0,0,0-5,22.61,51.41,51.41,0,0,0,3.29,18.48A46.67,46.67,0,0,0,282,82.16a42.67,42.67,0,0,0,14.14,10.12A43.81,43.81,0,0,0,314.2,96a70.28,70.28,0,0,0,17.36-2,53.85,53.85,0,0,0,14.86-6.31V63a30.45,30.45,0,0,1,.3-4.25Z"/><path d="M26,141.1H42.69v1.3H39.31V149c-.59.94-1.33,2-2.23,3.15a20.58,20.58,0,0,1-3.34,3.32,17.27,17.27,0,0,1-4.7,2.62,18,18,0,0,1-6.31,1,18.74,18.74,0,0,1-10.6-2.9,18.5,18.5,0,0,1-6.68-8,28.38,28.38,0,0,1-2.3-11.73,26.64,26.64,0,0,1,1.5-9.12,21.39,21.39,0,0,1,4.24-7.17,19.26,19.26,0,0,1,6.5-4.69,20,20,0,0,1,8.22-1.66,15.12,15.12,0,0,1,5.38,1,15,15,0,0,1,4.59,2.7l3.67-3.09h1v12.32H37.11a12.25,12.25,0,0,0-4.19-8.27,13.17,13.17,0,0,0-8.66-3.22A10.69,10.69,0,0,0,18,117a13,13,0,0,0-4.13,4.82,25.46,25.46,0,0,0-2.3,6.82,40.93,40.93,0,0,0-.73,7.8,57.48,57.48,0,0,0,.53,7.82,26.79,26.79,0,0,0,1.84,6.91,12.06,12.06,0,0,0,3.63,4.91,9.27,9.27,0,0,0,5.88,1.82,9.74,9.74,0,0,0,4.2-.81,8.72,8.72,0,0,0,2.77-2,11,11,0,0,0,1.64-2.28,18.69,18.69,0,0,0,.83-1.7V142.4H26Z"/><path d="M73.62,113.55,88.8,157.36h4.58v1.15h-18v-1.15h5.79L69.86,122.23,57.6,157.36h6.23v1.15h-13v-1.15h5.38l15.43-43.81Zm-11.93,31.2V143.6H80.47v1.15Z"/><path d="M113.23,136v-.76h6.29a9.91,9.91,0,0,0,4.15-.88,7.13,7.13,0,0,0,3.16-2.94,10.91,10.91,0,0,0,1.22-5.56,12.3,12.3,0,0,0-1.22-5.79,8.51,8.51,0,0,0-3.16-3.43,8.17,8.17,0,0,0-4.15-1.13H102V114.4h17.9q6.85,0,10.94,2.58t4.09,8.3q0,5.66-3.87,8.21T119.87,136ZM102,158.51v-1.15h18.14a8.17,8.17,0,0,0,4.56-1.34,9.34,9.34,0,0,0,3.29-3.85,13.54,13.54,0,0,0,1.23-6,11.32,11.32,0,0,0-1.23-5.65,7.35,7.35,0,0,0-3.29-3.11,10.56,10.56,0,0,0-4.56-1h-6.88v-.74h7.82a28.09,28.09,0,0,1,7.82,1,12,12,0,0,1,5.66,3.37,8.92,8.92,0,0,1,2.13,6.25q0,6.53-4.14,9.35t-11.47,2.82Zm5.32-.47V114.88h6.59V158Z"/><path d="M157.27,136.28v-.68H166a9.31,9.31,0,0,0,4.77-1.13,7.11,7.11,0,0,0,3-3.35,15.45,15.45,0,0,0,0-11,7.19,7.19,0,0,0-3-3.38,9.21,9.21,0,0,0-4.77-1.15H146.66V114.4h19.76a24.09,24.09,0,0,1,8,1.21,11.07,11.07,0,0,1,5.32,3.69,10.08,10.08,0,0,1,1.9,6.31,9.93,9.93,0,0,1-1.78,6.17,10.08,10.08,0,0,1-5.18,3.43,27.75,27.75,0,0,1-8.24,1.07Zm-10.61,22.23v-1.15h19.23v1.15Zm6.32-.62V115.14h6.59v42.75Zm27.84.94a8.11,8.11,0,0,1-4.19-.92,5.49,5.49,0,0,1-2.2-2.5,11.35,11.35,0,0,1-.87-3.55c-.12-1.31-.18-2.66-.2-4.05s-.1-2.75-.22-4.06a11.49,11.49,0,0,0-.89-3.54,5.52,5.52,0,0,0-2.22-2.52,8,8,0,0,0-4.23-.94h-8.53v-.62H168a15.82,15.82,0,0,1,6.63,1.15,8.56,8.56,0,0,1,3.69,3.06,11.69,11.69,0,0,1,1.66,4.19,27,27,0,0,1,.45,4.54c0,1.51.07,2.9.14,4.18a8.11,8.11,0,0,0,.64,3.05,2,2,0,0,0,2.05,1.15,6.56,6.56,0,0,0,1.67-.19,6.93,6.93,0,0,0,1.33-.49l.41,1.09a8.27,8.27,0,0,1-2.27.68A19.68,19.68,0,0,1,180.82,158.83Z"/><path d="M194.88,158.51v-1.15h6.5V115.55h-6.5V114.4H215v1.15h-7.06v41.81H215v1.15Z"/><path d="M223.57,158.51v-1.15h5.33V115.55h-5.33V114.4h32.05v12.06h-1.14a15.83,15.83,0,0,0-1.17-5.62,8.43,8.43,0,0,0-3.2-3.88,10.09,10.09,0,0,0-5.6-1.41h-9v41.81h8.41a12.28,12.28,0,0,0,6.44-1.47,8.47,8.47,0,0,0,3.51-4.17,18.32,18.32,0,0,0,1.22-6.44h1.15v13.23Zm21.17-16.11a7.21,7.21,0,0,0-1-3.34,5.56,5.56,0,0,0-2.21-2.07,6.4,6.4,0,0,0-3-.71H234v-1.15h4.47a7,7,0,0,0,3-.64,5.31,5.31,0,0,0,2.21-1.94,6.79,6.79,0,0,0,1-3.27h1.15V142.4Z"/><path d="M265.59,158.51v-1.15h5.32V115.55h-5.32V114.4h17.17v1.15H277.5v41.81h8.14a15.46,15.46,0,0,0,5.56-.84,7.44,7.44,0,0,0,3.34-2.41,9.94,9.94,0,0,0,1.69-3.8,26.66,26.66,0,0,0,.58-5H298v13.23Z"/><path d="M338.6,158.51v-1.15h5.29V137.31l-13.23-21.76h-4.44V114.4h18v1.15h-6l11.56,19.38,11.26-19.38h-6.15V114.4H367v1.15h-4.53l-12,20.49v21.32h5.91v1.15Z"/><path d="M414.75,114.4v1.15h-5.56V145q0,7.26-3.32,10.82t-10.35,3.56c-5.22,0-9-1.13-11.43-3.38s-3.6-5.92-3.6-11V115.55H375.2V114.4H393v1.15h-5.88v28.84a33.36,33.36,0,0,0,.41,5.39,12.93,12.93,0,0,0,1.47,4.29,7.5,7.5,0,0,0,3,2.85,10.65,10.65,0,0,0,5,1,12.6,12.6,0,0,0,6-1.32,8.69,8.69,0,0,0,3.77-4.18,17.93,17.93,0,0,0,1.31-7.47V115.55h-5.38V114.4Z"/><path d="M440.18,159.36a16.22,16.22,0,0,1-6.32-1.13,13,13,0,0,1-4.53-3.13l-3.29,4h-1V146.51h1.17a20,20,0,0,0,1.64,4.53,13.42,13.42,0,0,0,2.72,3.7,11.81,11.81,0,0,0,3.91,2.5,13.87,13.87,0,0,0,5.23.92,12,12,0,0,0,5.23-1,7.74,7.74,0,0,0,3.41-3,8.74,8.74,0,0,0,1.21-4.72,7,7,0,0,0-1.27-4.26,11.28,11.28,0,0,0-3.38-3,37.51,37.51,0,0,0-4.61-2.36q-2.5-1.06-5-2.27a26.23,26.23,0,0,1-4.62-2.84,12.37,12.37,0,0,1-3.38-4,12,12,0,0,1-1.26-5.73,10.19,10.19,0,0,1,1.7-5.87,11.59,11.59,0,0,1,4.53-3.86,13.92,13.92,0,0,1,6.2-1.38,14.93,14.93,0,0,1,5.24.89,11.46,11.46,0,0,1,4.17,2.72l3.27-3.61h1v12.4H451a17.16,17.16,0,0,0-2.44-6.16,11,11,0,0,0-4.1-3.71,11.8,11.8,0,0,0-5.46-1.24,8.73,8.73,0,0,0-6.08,1.91,6.58,6.58,0,0,0-2.09,5.09,5.91,5.91,0,0,0,1.26,3.83,11.88,11.88,0,0,0,3.33,2.78,42.64,42.64,0,0,0,4.54,2.3c1.65.72,3.31,1.5,4.95,2.33a24.16,24.16,0,0,1,4.55,3,13.83,13.83,0,0,1,2.85,16.95,11.65,11.65,0,0,1-4.84,4.48A15.78,15.78,0,0,1,440.18,159.36Z"/><path d="M502.48,114.4v1.15h-5.55V145q0,7.26-3.33,10.82t-10.35,3.56q-7.81,0-11.42-3.38t-3.6-11V115.55h-5.29V114.4H480.7v1.15h-5.88v28.84a32.27,32.27,0,0,0,.41,5.39,12.49,12.49,0,0,0,1.47,4.29,7.37,7.37,0,0,0,3,2.85,10.64,10.64,0,0,0,5,1,12.55,12.55,0,0,0,6-1.32,8.66,8.66,0,0,0,3.78-4.18,18.1,18.1,0,0,0,1.31-7.47V115.55h-5.38V114.4Z"/><path d="M522.51,136v-.76h6.29a9.83,9.83,0,0,0,4.14-.88,7,7,0,0,0,3.16-2.94,10.81,10.81,0,0,0,1.22-5.56,12.18,12.18,0,0,0-1.22-5.79,8.37,8.37,0,0,0-3.16-3.43,8.11,8.11,0,0,0-4.14-1.13H511.24V114.4h17.91q6.86,0,10.94,2.58t4.08,8.3q0,5.66-3.86,8.21T529.15,136Zm-11.27,22.47v-1.15h18.15a8.11,8.11,0,0,0,4.55-1.34,9.44,9.44,0,0,0,3.3-3.85,13.54,13.54,0,0,0,1.23-6,11.32,11.32,0,0,0-1.23-5.65,7.42,7.42,0,0,0-3.3-3.11,10.49,10.49,0,0,0-4.55-1h-6.88v-.74h7.82a28.14,28.14,0,0,1,7.82,1,12,12,0,0,1,5.66,3.37,8.92,8.92,0,0,1,2.13,6.25q0,6.53-4.15,9.35t-11.46,2.82Zm5.33-.47V114.88h6.58V158Z"/><path d="M576.55,159.1a18.18,18.18,0,0,1-8.09-1.74,17.2,17.2,0,0,1-6-4.85,22.32,22.32,0,0,1-3.75-7.22,29.59,29.59,0,0,1-1.27-8.83,28.13,28.13,0,0,1,1.35-8.84,22.5,22.5,0,0,1,3.88-7.22,17.9,17.9,0,0,1,6.06-4.85,18.63,18.63,0,0,1,15.68,0,18,18,0,0,1,6,4.85,22.5,22.5,0,0,1,3.88,7.22,27.85,27.85,0,0,1,1.36,8.84,29.59,29.59,0,0,1-1.28,8.83,22.11,22.11,0,0,1-3.74,7.22,17,17,0,0,1-6,4.85A18.16,18.16,0,0,1,576.55,159.1Zm0-1.06a9.2,9.2,0,0,0,5.86-1.78,11.36,11.36,0,0,0,3.46-4.84,27.29,27.29,0,0,0,1.63-6.94,74.42,74.42,0,0,0,.42-8,61.58,61.58,0,0,0-.51-8,28.07,28.07,0,0,0-1.76-6.94,11.82,11.82,0,0,0-3.47-4.84,9.84,9.84,0,0,0-11.26,0,11.76,11.76,0,0,0-3.49,4.84,28,28,0,0,0-1.79,6.94,59.84,59.84,0,0,0-.53,8,69.51,69.51,0,0,0,.45,8,28.6,28.6,0,0,0,1.65,6.94,11.11,11.11,0,0,0,3.46,4.84A9.24,9.24,0,0,0,576.55,158Z"/><path d="M648.32,114.4v1.15H643.2l-15.67,43.81h-2.15l-15.23-43.81h-4.5V114.4h18.2v1.15h-6.08l11.49,35.52,12.62-35.52h-7.15V114.4Z"/></svg>