<svg id="Слой_1" data-name="Слой 1" xmlns="http://www.w3.org/2000/svg" viewBox="0 0 362 340"><title>3</title><path d="M361.59,79.6H346.4l-70.49,113L227,116.7a157.52,157.52,0,0,0-12.65-17.87A59.76,59.76,0,0,0,198.17,85q-9.28-5.4-21.76-5.4H146.06v6.75q17.87,1.35,28.16,11.8A202.63,202.63,0,0,1,195,123.45l57.34,86.69v85.78c-16.57,14-32.31,17.26-42.73,20q-17.5,4.62-43.77,4.62A120,120,0,0,1,107.44,306Q80.71,291.37,64.9,257.33t-15.82-92.4a216.6,216.6,0,0,1,6.58-53.25A147.58,147.58,0,0,1,76.32,64.75a105,105,0,0,1,36.24-33.32Q134.67,19,165.8,19q44.25,0,69.8,21.39t34.76,63.71h9.73q0-16.53-1.46-35.5t-10.7-30.15Q254.81,22.44,225.13,11T151.22-.42q-46.21,0-80,22.13T18.94,81.28Q.46,118.74.46,164.93a189.85,189.85,0,0,0,12.16,68.32,172.09,172.09,0,0,0,34,55.69,157.7,157.7,0,0,0,52.28,37.44Q129.32,340,165.8,340q35.5,0,64.2-7.3A199,199,0,0,0,285,309.36V217.93a109.2,109.2,0,0,1,1.13-15.72Z"/></svg>