<svg id="Слой_1" data-name="Слой 1" xmlns="http://www.w3.org/2000/svg" viewBox="0 0 1055 270"><title>1</title><path d="M600.42,38.4H593.7l-31.19,50L540.88,54.81a69.41,69.41,0,0,0-5.6-7.9,26.33,26.33,0,0,0-7.16-6.12,18.85,18.85,0,0,0-9.63-2.39H505.06v3q7.9.6,12.46,5.23A87.89,87.89,0,0,1,526.7,57.8l25.37,38.35V134.1c-7.33,6.18-14.3,7.64-18.91,8.85A76.9,76.9,0,0,1,513.8,145,53,53,0,0,1,488,138.54q-11.84-6.45-18.82-21.51t-7-40.88a95.81,95.81,0,0,1,2.91-23.56,65.54,65.54,0,0,1,9.14-20.76,46.44,46.44,0,0,1,16-14.74Q500,11.6,513.8,11.61q19.58,0,30.88,9.46t15.38,28.19h4.3q0-7.32-.64-15.71T559,20.21q-5.81-7.1-18.93-12.16T507.35,3Q486.91,3,472,12.79a65.42,65.42,0,0,0-23.13,26.35q-8.19,16.57-8.18,37A83.94,83.94,0,0,0,446,106.38,76.07,76.07,0,0,0,461.09,131a69.67,69.67,0,0,0,23.13,16.57,71.59,71.59,0,0,0,29.58,6,115,115,0,0,0,28.4-3.23,87.72,87.72,0,0,0,24.31-10.32V99.6a49,49,0,0,1,.5-7Z"/><path d="M42.53,227.46h26v2.11H62.74v10.49a34,34,0,0,1-3.13,5.15,30.57,30.57,0,0,1-5.27,5.55,27.29,27.29,0,0,1-7.67,4.41,28.63,28.63,0,0,1-10.35,1.73q-10,0-17-4.81A30.38,30.38,0,0,1,8.71,238.91a47.15,47.15,0,0,1-3.65-19,45,45,0,0,1,2.33-14.8,35.53,35.53,0,0,1,6.66-11.76,30,30,0,0,1,10.34-7.75,31.87,31.87,0,0,1,13.33-2.74,25.55,25.55,0,0,1,9.12,1.66,24.21,24.21,0,0,1,7.62,4.6l5-5.3H61.2V203.5H59.27a18.55,18.55,0,0,0-1.92-7.67,18.3,18.3,0,0,0-4.62-5.8,21,21,0,0,0-6.5-3.68,22.46,22.46,0,0,0-7.55-1.28A18.54,18.54,0,0,0,28.07,188a21.27,21.27,0,0,0-7,7.91,40.56,40.56,0,0,0-3.83,11.19,66.9,66.9,0,0,0-1.2,12.75A91.16,91.16,0,0,0,17,232.65,42.63,42.63,0,0,0,20.09,244a20,20,0,0,0,6.18,8,16.19,16.19,0,0,0,10.05,3,17.79,17.79,0,0,0,7.49-1.39,15.26,15.26,0,0,0,4.81-3.35,17.91,17.91,0,0,0,2.76-3.75c.64-1.2,1.08-2.06,1.3-2.57V229.57H42.53Z"/><path d="M118.35,182.38l24.82,71.68h7.51v1.88H122.77v-1.88h9.86l-18.9-58.55-20.4,58.55h10.2v1.88H82.36v-1.88h8.81l25.2-71.68Zm-18.19,51V231.5h31.18v1.87Z"/><path d="M182.52,219.18v-1.25H193.1a17.34,17.34,0,0,0,7-1.44,11.91,11.91,0,0,0,5.41-4.81c1.4-2.25,2.09-5.28,2.09-9.1a19.21,19.21,0,0,0-2.09-9.47,14,14,0,0,0-12.39-7.46H165.2v-1.88h27.9q10.92,0,17.49,4.21t6.57,13.59q0,9.35-6.21,13.47t-17.85,4.14ZM165.2,255.94v-1.88h28.87a14.23,14.23,0,0,0,7.65-2.19,15.64,15.64,0,0,0,5.62-6.3,21.27,21.27,0,0,0,2.12-9.84,17.78,17.78,0,0,0-2.12-9.24,12.5,12.5,0,0,0-5.62-5.1,18.54,18.54,0,0,0-7.65-1.58H182.52V218.6h12.56a43.81,43.81,0,0,1,12.46,1.69,19.46,19.46,0,0,1,9.09,5.43q3.42,3.76,3.41,10,0,10.83-6.66,15.52t-18.3,4.69Zm8.66-.73V184.5h9.19v70.71Z"/><path d="M254.2,219.66v-1.1h14.43a15.42,15.42,0,0,0,7.87-1.9,12.13,12.13,0,0,0,4.93-5.56,21.22,21.22,0,0,0,1.68-8.9,21.6,21.6,0,0,0-1.68-8.95,12.36,12.36,0,0,0-4.93-5.65,15,15,0,0,0-7.87-1.95H236.88v-1.88h31.75a36.64,36.64,0,0,1,12.68,2,17.56,17.56,0,0,1,8.39,6.09,17.07,17.07,0,0,1,3,10.34c0,4.17-.94,7.54-2.79,10.1a15.77,15.77,0,0,1-8.16,5.61,42.59,42.59,0,0,1-13.11,1.75Zm-17.32,36.28v-1.88h30.36v1.88Zm10.58-1V185.07h9.14v69.86Zm44.74,1.49a11.87,11.87,0,0,1-6.51-1.52,8.72,8.72,0,0,1-3.4-4.09A19.53,19.53,0,0,1,281,245q-.27-3.19-.31-6.62c0-2.27-.16-4.48-.39-6.61a18.67,18.67,0,0,0-1.49-5.77A8.92,8.92,0,0,0,275.1,222a13.5,13.5,0,0,0-7-1.52H254.2v-1h15.88q6.87,0,10.94,1.88a14.3,14.3,0,0,1,6.13,5,18.76,18.76,0,0,1,2.79,6.83,43.39,43.39,0,0,1,.8,7.41c.05,2.47.12,4.75.24,6.83a13.36,13.36,0,0,0,1.06,5,3.3,3.3,0,0,0,3.29,1.87,10.6,10.6,0,0,0,2.72-.31,11.45,11.45,0,0,0,2.14-.79l.67,1.78a12.33,12.33,0,0,1-3.46,1A28.19,28.19,0,0,1,292.2,256.42Z"/><path d="M314.86,255.94v-1.88h10.59V185.65H314.86v-1.88h31.27v1.88H334.59v68.41h11.54v1.88Z"/><path d="M360.66,255.94v-1.88h8.66V185.65h-8.66v-1.88H412V203.5h-1.88a26.77,26.77,0,0,0-1.46-9.19,12.82,12.82,0,0,0-4.81-6.35q-3.34-2.31-9-2.31H378.51v68.41h15.34q6.6,0,10.35-2.41a13,13,0,0,0,5.31-6.83,31.47,31.47,0,0,0,1.57-10.53H413v21.65Zm33.1-26.8a10.5,10.5,0,0,0-1.23-5.34,7.8,7.8,0,0,0-3.39-3.17,11,11,0,0,0-4.91-1.06h-8v-1.88h8a12,12,0,0,0,4.91-1,7.44,7.44,0,0,0,3.39-3,10,10,0,0,0,1.23-5.25h1.87v20.64Z"/><path d="M428.73,255.94v-1.88h8.66V185.65h-8.66v-1.88h26.46v1.88h-8.61v68.41h14.86a25,25,0,0,0,9.1-1.37,11,11,0,0,0,5.17-3.95,15,15,0,0,0,2.33-6.23,52.33,52.33,0,0,0,.58-8.22h1.92v21.65Z"/><path d="M547.7,255.94v-1.88h8.66V221.25l-21.94-35.6h-7.36v-1.88H555v1.88H545l19.38,31.8,19.05-31.8h-10.1v-1.88H593v1.88h-7.31L565.5,219.09v35h9.67v1.88Z"/><path d="M670.71,183.77v1.88h-9.09v48.16q0,11.88-5.37,17.7t-16.76,5.82q-12.47,0-18.26-5.53t-5.8-18V185.65h-8.61v-1.88h27.42v1.88h-9.62v47.19a51.75,51.75,0,0,0,.7,8.83,20.2,20.2,0,0,0,2.5,7.07,12.26,12.26,0,0,0,5.1,4.69,18.56,18.56,0,0,0,8.49,1.69,21,21,0,0,0,10.05-2.19,14,14,0,0,0,6.21-6.88q2.12-4.7,2.12-12.24V185.65h-8.85v-1.88Z"/><path d="M712.37,257.33a27.32,27.32,0,0,1-10.73-1.92,21.19,21.19,0,0,1-7.55-5.3l-4.48,6.79H688V237.13h1.87a27.61,27.61,0,0,0,2.46,7.26,20,20,0,0,0,4.35,5.77A19.22,19.22,0,0,0,703,254a24.31,24.31,0,0,0,8.49,1.37,20.88,20.88,0,0,0,8.83-1.73,13,13,0,0,0,5.75-5,15.11,15.11,0,0,0,2-8.06A12,12,0,0,0,726,233.4a18.7,18.7,0,0,0-5.51-5.05A59.1,59.1,0,0,0,713,224.4c-2.72-1.2-5.45-2.46-8.17-3.77a43.63,43.63,0,0,1-7.53-4.6,20.19,20.19,0,0,1-5.51-6.35,18.43,18.43,0,0,1-2.07-9.07,16.32,16.32,0,0,1,2.69-9.33,18.32,18.32,0,0,1,7.24-6.23,22.44,22.44,0,0,1,10-2.24,24.49,24.49,0,0,1,8.76,1.52,18.61,18.61,0,0,1,6.93,4.59l4.47-6.11h1.59v19.77h-1.83a24.4,24.4,0,0,0-3.61-9.93,16.6,16.6,0,0,0-6.59-5.82,20,20,0,0,0-8.8-1.9q-6.89,0-10.42,3.25a11.1,11.1,0,0,0-3.53,8.58,10.23,10.23,0,0,0,2,6.45,19,19,0,0,0,5.41,4.64,71,71,0,0,0,7.41,3.78q4.05,1.78,8.08,3.82a39.58,39.58,0,0,1,7.41,4.84,21.41,21.41,0,0,1,5.42,6.76,20.87,20.87,0,0,1,2,9.64,21.41,21.41,0,0,1-2.69,10.9,18.39,18.39,0,0,1-7.65,7.19A25.38,25.38,0,0,1,712.37,257.33Z"/><path d="M813.1,183.77v1.88H804v48.16q0,11.88-5.36,17.7t-16.77,5.82q-12.45,0-18.25-5.53t-5.8-18V185.65h-8.61v-1.88h27.42v1.88H767v47.19a52.82,52.82,0,0,0,.69,8.83,20.21,20.21,0,0,0,2.51,7.07,12.26,12.26,0,0,0,5.1,4.69,18.5,18.5,0,0,0,8.49,1.69,21.09,21.09,0,0,0,10.05-2.19,14,14,0,0,0,6.21-6.88q2.11-4.7,2.11-12.24V185.65h-8.85v-1.88Z"/><path d="M845.24,219.18v-1.25h10.58a17.34,17.34,0,0,0,7-1.44,11.91,11.91,0,0,0,5.41-4.81c1.4-2.25,2.09-5.28,2.09-9.1a19.21,19.21,0,0,0-2.09-9.47,14,14,0,0,0-12.39-7.46h-27.9v-1.88h27.9q10.92,0,17.49,4.21t6.57,13.59q0,9.35-6.21,13.47t-17.85,4.14Zm-17.32,36.76v-1.88h28.87a14.17,14.17,0,0,0,7.64-2.19,15.59,15.59,0,0,0,5.63-6.3,21.27,21.27,0,0,0,2.12-9.84,17.78,17.78,0,0,0-2.12-9.24,12.47,12.47,0,0,0-5.63-5.1,18.46,18.46,0,0,0-7.64-1.58H845.24V218.6H857.8a43.68,43.68,0,0,1,12.45,1.69,19.44,19.44,0,0,1,9.1,5.43q3.4,3.76,3.41,10,0,10.83-6.66,15.52t-18.3,4.69Zm8.66-.73V184.5h9.19v70.71Z"/><path d="M932.75,256.9a28.85,28.85,0,0,1-13-2.86,28.09,28.09,0,0,1-9.7-8,36.19,36.19,0,0,1-6-11.81,49.24,49.24,0,0,1-2-14.4,46.13,46.13,0,0,1,2.19-14.41,37.21,37.21,0,0,1,6.23-11.81,28.88,28.88,0,0,1,9.71-8,29.36,29.36,0,0,1,25.28,0,29.21,29.21,0,0,1,9.72,8,36.81,36.81,0,0,1,6.23,11.81,46.72,46.72,0,0,1,2.17,14.41,49.23,49.23,0,0,1-2,14.4,36.34,36.34,0,0,1-6,11.81,27.81,27.81,0,0,1-9.67,8A28.83,28.83,0,0,1,932.75,256.9Zm0-1.73q6.3,0,10.17-3a19.33,19.33,0,0,0,6-8.08,43,43,0,0,0,2.83-11.38,108.54,108.54,0,0,0,.75-12.84,92.23,92.23,0,0,0-.89-12.85,44.61,44.61,0,0,0-3.06-11.38,19.91,19.91,0,0,0-6-8.08,17.34,17.34,0,0,0-19.53,0,20.15,20.15,0,0,0-6,8.08A44.61,44.61,0,0,0,913.86,207a92.23,92.23,0,0,0-.89,12.85,106.43,106.43,0,0,0,.77,12.84,44.63,44.63,0,0,0,2.84,11.38,19,19,0,0,0,6,8.08A16.29,16.29,0,0,0,932.75,255.17Z"/><path d="M1048.83,183.77v1.88h-8.33l-25.68,71.68h-2.22l-24.92-71.68h-7.36v-1.88h27.9v1.88h-10l19.1,59.08,21-59.08h-11.79v-1.88Z"/></svg>